# xmcd CD database file
#
# Track frame offsets:
#	150
#	30900
#	53625
#
# Disc length: 1122 seconds
#
# Revision: 0
# Processed by: cddbd v1.5.1PL2 Copyright (c) Steve Scherf et al.
# Submitted via: CDex 1.51
#
DISCID=16046003
DTITLE=徳永英明 - シングル「SMILE」
DYEAR=1996
DGENRE=JPop
TTITLE0=SMILE
TTITLE1=ALL MY LOVE
TTITLE2=SMILE No Vocal Edition
EXTD=YEAR: 1996
EXTT0=
EXTT1=
EXTT2=
PLAYORDER=
